<?xml version="1.0" ?><!DOCTYPE svg  PUBLIC '-//W3C//DTD SVG 1.1//EN'  'http://www.w3.org/Graphics/SVG/1.1/DTD/svg11.dtd'><svg enable-background="new 0 0 617.5898 1010" id="bulb" version="1.1" viewBox="0 0 617.5898 1010" xml:space="preserve" xmlns="http://www.w3.org/2000/svg" xmlns:xlink="http://www.w3.org/1999/xlink"><g id="bulb-bulb"><path d="M308.8193,0C138.5303,0,0,138.604,0,308.918c0,66.6758,20.9599,130.2451,59.8701,182.5942l14.3018,21.2061   c44.5083,65.27,105.4633,154.7798,102.0361,217.4116l-1.2334,22.6856l245.0039-0.1485l21.6504-0.3945l-0.1973-21.6494   c0-0.6906,0.542-71.8789,104.9199-222.6885l9.5186-13.8828c9.1973-12.1069,17.5811-25.1758,24.7568-38.5405   c4.6114-8.4087,8.7285-16.8912,12.4522-25.9156c16.2744-38.1709,24.5107-78.7832,24.5107-120.6777   C617.5898,138.604,479.0595,0,308.8193,0z M553.4531,412.9756c-3.1562,7.7183-6.6328,14.8198-10.5283,21.9707   c-6.3623,11.6143-13.5625,22.8335-21.8233,33.9297l-10.1337,14.6963c-81.9893,118.4824-104.4034,191.8164-110.3702,226.1406   l-182.101,0.1231c-7.5699-72.791-65.4185-157.6651-108.8169-221.3565l-14.4991-21.4033   c-34.1269-46.1113-52.2504-100.729-52.2504-158.1582c0-146.5928,119.3208-265.8398,265.8891-265.8398   c146.544,0,265.8154,119.247,265.8154,265.8398C574.6347,344.9439,567.5332,379.8848,553.4531,412.9756z" fill="#1A1A1A"/><rect fill="#1A1A1A" height="42.9541" width="127.2364" x="245.1767" y="967.0459"/><rect fill="#1A1A1A" height="43.0039" width="257.8018" x="179.9062" y="882.2217"/><path d="M390.6845,155.273c-10.3564-3.8218-22.4638,1.9233-26.2119,12.1567   c-3.8955,10.6275,1.5537,22.3399,12.1573,26.2114c25.792,9.3702,37.4804,34.7437,42.8066,54.2974   c10.4053,38.541,3.2549,85.2681-10.1592,101.3452c-7.1513,8.606-5.9678,21.5269,2.7119,28.7759   c3.6495,3.0576,8.3096,4.6855,13.0694,4.6855c1.4795,0,2.9336-0.1728,4.3886-0.4443c4.4385-1.0107,8.4336-3.4272,11.294-6.8794   c23.499-28.2827,31.4141-88.9419,18.1484-138.1846C447.8916,196.378,423.6523,167.2813,390.6845,155.273z" fill="#1A1A1A"/><rect fill="#1A1A1A" height="43.0039" width="257.8018" x="179.9062" y="797.3975"/></g></svg>