<?xml version="1.0" ?><svg viewBox="0 0 60 60" xmlns="http://www.w3.org/2000/svg"><title/><g data-name="Layer 1" id="Layer_1"><path d="M59.29834.04541a1.00348,1.00348,0,0,0-1.24707.63818c-.75439,2.26416-6.38818,3.57373-12.91162,5.09082-8.46631,1.96826-19.00293,4.418-27.6543,10.36816C12.88849,18.90088-.9314,27.20758,6.73328,42.69684,3.37012,47.14752,0,51.8158,0,59a.99987.99987,0,0,0,1.76807.64014l5-6a.99434.99434,0,0,0,.21582-.46143A48.805,48.805,0,0,1,9.1886,45.03827c.8252.03461,1.65247.0863,2.46326.14825,1.22705.09375,2.46191.188,3.68994.188,4.606-.00049,9.09912-1.32861,12.58691-9.00293C31.54,27.34277,36.95264,24.502,42.68359,21.49463,49.29,18.02734,56.12109,14.44238,59.96,1.27979A.9997.9997,0,0,0,59.29834.04541ZM5.064,52.561,2.2334,55.958a22.69091,22.69091,0,0,1,4.4541-9.8374A51.94828,51.94828,0,0,0,5.064,52.561ZM42.69409,19.22888l-2.24683-1.12341a1.00012,1.00012,0,1,0-.89453,1.78906l.96417.48212a31.97083,31.97083,0,0,0-9.33331,6.78149A12.87811,12.87811,0,0,1,26.04932,28a.98943.98943,0,0,0-1.02637,1,1.0082,1.0082,0,0,0,1.07275,1,20.50679,20.50679,0,0,0,3.03186-.20117,29.86818,29.86818,0,0,0-2.884,5.43091C23.64777,36.90717,21.94672,37,19,37a1,1,0,0,0,0,2,15.55133,15.55133,0,0,0,5.65057-.72638c-3.57208,5.6217-7.91125,5.29578-12.84637,4.91876-.60541-.04608-1.22278-.08856-1.84369-.12457C15.78137,29.28448,28.22833,19.2536,48.3418,11.93994a1.00016,1.00016,0,0,0-.68359-1.87988c-17.80566,6.4751-29.78516,15.062-36.62012,26.44629a1.05026,1.05026,0,0,0-.05908.0918,43.16253,43.16253,0,0,1-2.88727,4.2951C6.10223,36.4007,6.13568,32.62018,7.233,29.47748a10.87328,10.87328,0,0,0,.86078,2.94537,1,1,0,1,0,1.8125-.8457,12.86572,12.86572,0,0,1-.9165-5.56653,25.05725,25.05725,0,0,1,6.838-6.467A11.00519,11.00519,0,0,0,14,25a1,1,0,0,0,2,0c0-.79663.33624-3.751,4.577-8.46478a61.86926,61.86926,0,0,1,14.62073-6.16693l-.09222.18445a1.00012,1.00012,0,0,0,1.78906.89453l.90607-1.81219c2.70551-.72766,5.33826-1.34235,7.79169-1.9129C50.2998,6.62793,54.20752,5.71924,56.78516,4.4165,53.30151,13.26288,48.16394,16.3374,42.69409,19.22888Z"/></g></svg>